<mxfile host="app.diagrams.net" modified="2023-09-22T05:54:07.109Z" agent="Mozilla/5.0 (Windows NT 10.0; Win64; x64) AppleWebKit/537.36 (KHTML, like Gecko) Chrome/117.0.0.0 Safari/537.36 Edg/117.0.2045.36" version="21.7.5" etag="4qCgm87G_Eoo67lvfClL" type="github">
  <diagram name="第 1 页" id="CY0WpOIM5rKtpmyZK9Tt">
    <mxGraphModel>
      <root>
        <mxCell id="0" />
        <mxCell id="1" parent="0" />
      </root>
    </mxGraphModel>
  </diagram>
</mxfile>
